<?xml version="1.0" encoding="UTF-8"?>
<svg xmlns="http://www.w3.org/2000/svg" xmlns:xlink="http://www.w3.org/1999/xlink" width="60pt" height="60pt" viewBox="0 0 60 60" version="1.1">
<g id="surface1">
<path style=" stroke:none;fill-rule:nonzero;fill:rgb(0%,62.745098%,100%);fill-opacity:1;" d="M 21.097656 20.996094 C 20.914062 20.855469 20.726562 20.730469 20.53125 20.621094 C 20.382812 20.539062 20.210938 20.578125 20.113281 20.707031 L 18.878906 22.347656 L 18.789062 22.460938 C 18.65625 22.640625 18.445312 22.738281 18.222656 22.726562 C 18.140625 22.722656 18.0625 22.722656 17.980469 22.726562 C 17.359375 22.765625 16.765625 23.0625 16.363281 23.601562 C 16.039062 24.027344 15.894531 24.539062 15.921875 25.039062 C 15.929688 25.125 15.976562 25.207031 16.058594 25.242188 C 16.226562 25.320312 16.363281 25.476562 16.394531 25.679688 C 16.4375 25.964844 16.265625 26.242188 15.988281 26.328125 C 15.664062 26.425781 15.328125 26.226562 15.257812 25.902344 C 15.21875 25.722656 15.261719 25.546875 15.363281 25.417969 C 15.425781 25.34375 15.453125 25.25 15.441406 25.15625 C 15.386719 24.523438 15.554688 23.859375 15.972656 23.308594 C 16.5 22.613281 17.296875 22.242188 18.105469 22.238281 C 18.261719 22.238281 18.40625 22.164062 18.5 22.039062 L 19.632812 20.53125 C 19.722656 20.410156 19.667969 20.242188 19.527344 20.203125 C 17.625 19.644531 15.5 20.269531 14.226562 21.929688 C 12.574219 24.078125 12.976562 27.175781 15.121094 28.832031 C 15.320312 28.988281 15.53125 29.125 15.746094 29.242188 C 15.886719 29.324219 16.0625 29.285156 16.164062 29.15625 L 17.394531 27.515625 L 17.480469 27.402344 C 17.617188 27.222656 17.828125 27.125 18.050781 27.136719 C 18.132812 27.144531 18.210938 27.144531 18.289062 27.136719 C 18.90625 27.101562 19.507812 26.800781 19.910156 26.265625 C 20.230469 25.835938 20.378906 25.324219 20.351562 24.828125 C 20.34375 24.738281 20.289062 24.65625 20.210938 24.621094 C 20.042969 24.542969 19.910156 24.386719 19.878906 24.1875 C 19.835938 23.898438 20.007812 23.621094 20.285156 23.535156 C 20.609375 23.4375 20.941406 23.636719 21.019531 23.964844 C 21.054688 24.144531 21.011719 24.316406 20.910156 24.445312 C 20.851562 24.523438 20.824219 24.613281 20.828125 24.707031 C 20.886719 25.34375 20.714844 26.003906 20.300781 26.558594 C 19.773438 27.25 18.976562 27.621094 18.167969 27.625 C 18.011719 27.625 17.867188 27.703125 17.773438 27.828125 L 16.640625 29.335938 C 16.546875 29.449219 16.605469 29.621094 16.742188 29.660156 C 18.65625 30.226562 20.804688 29.585938 22.074219 27.898438 C 23.707031 25.722656 23.273438 22.628906 21.097656 20.996094 Z M 21.097656 20.996094 "/>
<path style=" stroke:none;fill-rule:nonzero;fill:rgb(0%,62.745098%,100%);fill-opacity:1;" d="M 29.238281 22.339844 L 29.238281 22.222656 C 29.238281 22.140625 29.167969 22.070312 29.078125 22.070312 L 25.242188 22.070312 C 25.15625 22.070312 25.085938 22.140625 25.085938 22.222656 L 25.085938 22.457031 C 25.085938 22.542969 25.15625 22.613281 25.242188 22.613281 L 28.5 22.613281 C 28.589844 22.613281 28.667969 22.695312 28.652344 22.785156 C 28.558594 23.394531 28.273438 24.523438 27.375 25.613281 C 27.316406 25.6875 27.195312 25.6875 27.136719 25.609375 C 26.390625 24.652344 26.15625 23.671875 26.097656 23.308594 C 26.078125 23.230469 26.007812 23.171875 25.929688 23.183594 L 25.804688 23.195312 L 25.695312 23.210938 C 25.609375 23.214844 25.546875 23.296875 25.5625 23.390625 C 25.640625 23.800781 25.917969 24.941406 26.796875 26.03125 C 26.851562 26.089844 26.84375 26.183594 26.785156 26.238281 C 25.714844 27.21875 24.75 27.4375 24.410156 27.480469 C 24.332031 27.492188 24.273438 27.554688 24.273438 27.636719 L 24.273438 27.871094 C 24.273438 27.960938 24.355469 28.03125 24.445312 28.023438 C 24.851562 27.972656 25.945312 27.746094 27.152344 26.632812 C 27.214844 26.578125 27.304688 26.578125 27.367188 26.632812 C 27.945312 27.175781 28.6875 27.695312 29.699219 28.015625 C 29.78125 28.039062 29.867188 27.996094 29.886719 27.90625 L 29.953125 27.6875 C 29.980469 27.605469 29.929688 27.523438 29.855469 27.496094 C 28.9375 27.203125 28.265625 26.734375 27.734375 26.253906 C 27.675781 26.199219 27.667969 26.101562 27.722656 26.042969 C 29.214844 24.292969 29.238281 22.421875 29.238281 22.339844 Z M 29.238281 22.339844 "/>
<path style=" stroke:none;fill-rule:nonzero;fill:rgb(0%,62.745098%,100%);fill-opacity:1;" d="M 31.902344 21.828125 L 31.667969 21.828125 C 31.582031 21.828125 31.511719 21.890625 31.511719 21.976562 L 31.511719 22.796875 C 31.511719 22.882812 31.445312 22.953125 31.359375 22.953125 L 30.8125 22.953125 C 30.722656 22.953125 30.652344 23.019531 30.652344 23.105469 L 30.652344 23.339844 C 30.652344 23.425781 30.722656 23.492188 30.8125 23.492188 L 31.359375 23.492188 C 31.445312 23.492188 31.511719 23.5625 31.511719 23.648438 L 31.511719 24.835938 C 31.511719 24.917969 31.445312 24.988281 31.359375 24.988281 L 30.8125 24.988281 C 30.722656 24.988281 30.652344 25.058594 30.652344 25.140625 L 30.652344 25.375 C 30.652344 25.460938 30.722656 25.53125 30.8125 25.53125 L 31.359375 25.53125 C 31.445312 25.53125 31.511719 25.597656 31.511719 25.683594 L 31.511719 26.804688 C 31.511719 27.050781 31.414062 27.453125 30.792969 27.5 C 30.710938 27.511719 30.648438 27.578125 30.648438 27.660156 L 30.648438 27.890625 C 30.648438 27.976562 30.722656 28.050781 30.816406 28.042969 C 31.417969 27.988281 32.054688 27.648438 32.054688 26.804688 L 32.054688 25.683594 C 32.054688 25.597656 32.125 25.53125 32.203125 25.53125 L 32.699219 25.53125 C 32.78125 25.53125 32.851562 25.460938 32.851562 25.375 L 32.851562 25.140625 C 32.851562 25.058594 32.78125 24.988281 32.699219 24.988281 L 32.203125 24.988281 C 32.125 24.988281 32.054688 24.917969 32.054688 24.835938 L 32.054688 23.648438 C 32.054688 23.5625 32.125 23.492188 32.203125 23.492188 L 32.699219 23.492188 C 32.78125 23.492188 32.851562 23.425781 32.851562 23.339844 L 32.851562 23.105469 C 32.851562 23.019531 32.78125 22.953125 32.699219 22.953125 L 32.203125 22.953125 C 32.125 22.953125 32.054688 22.882812 32.054688 22.796875 L 32.054688 21.976562 C 32.054688 21.890625 31.984375 21.828125 31.902344 21.828125 Z M 31.902344 21.828125 "/>
<path style=" stroke:none;fill-rule:nonzero;fill:rgb(0%,62.745098%,100%);fill-opacity:1;" d="M 33.121094 27.855469 C 33.121094 27.933594 33.1875 28.003906 33.273438 28.003906 L 35 28.003906 C 35.765625 28.003906 36.386719 27.414062 36.386719 26.683594 L 36.386719 23.050781 C 36.386719 22.972656 36.316406 22.898438 36.230469 22.898438 L 33.273438 22.898438 C 33.1875 22.898438 33.121094 22.972656 33.121094 23.050781 Z M 35 27.464844 L 33.816406 27.464844 C 33.730469 27.464844 33.660156 27.398438 33.660156 27.3125 L 33.660156 25.683594 C 33.660156 25.597656 33.730469 25.53125 33.816406 25.53125 L 35.695312 25.53125 C 35.773438 25.53125 35.84375 25.597656 35.84375 25.683594 L 35.84375 26.683594 C 35.84375 27.117188 35.464844 27.464844 35 27.464844 Z M 35.84375 23.59375 L 35.84375 24.835938 C 35.84375 24.917969 35.773438 24.988281 35.695312 24.988281 L 33.816406 24.988281 C 33.730469 24.988281 33.660156 24.917969 33.660156 24.835938 L 33.660156 23.59375 C 33.660156 23.507812 33.730469 23.441406 33.816406 23.441406 L 35.695312 23.441406 C 35.773438 23.441406 35.84375 23.507812 35.84375 23.59375 Z M 35.84375 23.59375 "/>
<path style=" stroke:none;fill-rule:nonzero;fill:rgb(0%,62.745098%,100%);fill-opacity:1;" d="M 35.472656 21.820312 L 33.945312 21.820312 C 33.859375 21.820312 33.792969 21.890625 33.792969 21.972656 L 33.792969 22.207031 C 33.792969 22.292969 33.859375 22.363281 33.945312 22.363281 L 35.472656 22.363281 C 35.558594 22.363281 35.628906 22.292969 35.628906 22.207031 L 35.628906 21.972656 C 35.628906 21.890625 35.558594 21.820312 35.472656 21.820312 Z M 35.472656 21.820312 "/>
<path style=" stroke:none;fill-rule:nonzero;fill:rgb(0%,62.745098%,100%);fill-opacity:1;" d="M 41.304688 22.058594 L 38.128906 22.058594 C 38.042969 22.058594 37.972656 22.128906 37.972656 22.210938 L 37.972656 22.445312 C 37.972656 22.53125 38.042969 22.601562 38.128906 22.601562 L 41.304688 22.601562 C 41.390625 22.601562 41.460938 22.53125 41.460938 22.445312 L 41.460938 22.210938 C 41.460938 22.128906 41.390625 22.058594 41.304688 22.058594 Z M 41.304688 22.058594 "/>
<path style=" stroke:none;fill-rule:nonzero;fill:rgb(0%,62.745098%,100%);fill-opacity:1;" d="M 39.945312 24.773438 L 42.160156 24.773438 C 42.246094 24.773438 42.3125 24.703125 42.3125 24.613281 L 42.3125 24.382812 C 42.3125 24.300781 42.246094 24.230469 42.160156 24.230469 L 37.273438 24.230469 C 37.183594 24.230469 37.121094 24.300781 37.121094 24.382812 L 37.121094 24.613281 C 37.121094 24.703125 37.183594 24.773438 37.273438 24.773438 L 38.785156 24.773438 C 38.90625 24.773438 38.980469 24.90625 38.910156 25.003906 L 37.90625 26.824219 C 37.878906 26.867188 37.859375 26.90625 37.84375 26.949219 C 37.761719 27.191406 37.796875 27.457031 37.949219 27.667969 C 38.113281 27.898438 38.378906 28.03125 38.660156 28.03125 L 41.421875 28.03125 C 41.546875 28.03125 41.660156 27.96875 41.726562 27.863281 C 41.792969 27.761719 41.796875 27.636719 41.75 27.527344 L 41.109375 26.285156 C 41.0625 26.210938 40.972656 26.183594 40.902344 26.21875 L 40.691406 26.328125 C 40.613281 26.367188 40.585938 26.460938 40.625 26.535156 L 41.003906 27.269531 C 41.054688 27.371094 40.984375 27.492188 40.863281 27.492188 L 38.660156 27.492188 C 38.550781 27.492188 38.449219 27.441406 38.390625 27.359375 C 38.363281 27.316406 38.324219 27.242188 38.347656 27.148438 C 38.351562 27.132812 38.355469 27.117188 38.367188 27.105469 L 39.59375 24.960938 C 39.671875 24.84375 39.804688 24.773438 39.945312 24.773438 Z M 39.945312 24.773438 "/>
</g>
</svg>
