<?xml version="1.0" encoding="UTF-8"?>
<svg xmlns="http://www.w3.org/2000/svg" xmlns:xlink="http://www.w3.org/1999/xlink" width="50pt" height="50pt" viewBox="0 0 50 50" version="1.1">
<g id="surface1">
<path style=" stroke:none;fill-rule:nonzero;fill:rgb(0%,62.745098%,100%);fill-opacity:1;" d="M 17.582031 17.496094 C 17.429688 17.378906 17.269531 17.273438 17.109375 17.183594 C 16.984375 17.117188 16.839844 17.148438 16.761719 17.257812 L 15.734375 18.621094 L 15.65625 18.71875 C 15.546875 18.867188 15.371094 18.949219 15.1875 18.9375 C 15.117188 18.933594 15.050781 18.933594 14.984375 18.9375 C 14.46875 18.96875 13.96875 19.21875 13.636719 19.667969 C 13.363281 20.023438 13.246094 20.449219 13.269531 20.863281 C 13.273438 20.9375 13.316406 21.003906 13.382812 21.035156 C 13.523438 21.101562 13.636719 21.230469 13.664062 21.398438 C 13.699219 21.636719 13.554688 21.867188 13.324219 21.941406 C 13.050781 22.023438 12.773438 21.855469 12.714844 21.582031 C 12.683594 21.433594 12.71875 21.289062 12.804688 21.179688 C 12.855469 21.117188 12.875 21.042969 12.867188 20.964844 C 12.820312 20.433594 12.960938 19.882812 13.308594 19.421875 C 13.75 18.84375 14.414062 18.535156 15.085938 18.53125 C 15.21875 18.53125 15.339844 18.46875 15.417969 18.363281 L 16.363281 17.109375 C 16.433594 17.007812 16.390625 16.867188 16.273438 16.835938 C 14.6875 16.371094 12.917969 16.890625 11.855469 18.273438 C 10.480469 20.066406 10.816406 22.644531 12.601562 24.023438 C 12.769531 24.15625 12.945312 24.269531 13.121094 24.367188 C 13.238281 24.4375 13.386719 24.40625 13.46875 24.296875 L 14.496094 22.929688 L 14.566406 22.835938 C 14.679688 22.6875 14.855469 22.605469 15.042969 22.613281 C 15.109375 22.621094 15.175781 22.621094 15.242188 22.613281 C 15.757812 22.582031 16.257812 22.335938 16.59375 21.886719 C 16.859375 21.53125 16.980469 21.105469 16.957031 20.6875 C 16.953125 20.617188 16.910156 20.546875 16.839844 20.515625 C 16.699219 20.453125 16.59375 20.324219 16.566406 20.15625 C 16.527344 19.914062 16.675781 19.683594 16.90625 19.613281 C 17.175781 19.53125 17.453125 19.699219 17.515625 19.96875 C 17.546875 20.117188 17.511719 20.261719 17.425781 20.371094 C 17.375 20.433594 17.351562 20.511719 17.355469 20.589844 C 17.40625 21.117188 17.261719 21.667969 16.917969 22.132812 C 16.480469 22.710938 15.816406 23.015625 15.140625 23.023438 C 15.011719 23.023438 14.886719 23.085938 14.8125 23.1875 L 13.867188 24.445312 C 13.789062 24.539062 13.839844 24.683594 13.953125 24.71875 C 15.546875 25.1875 17.339844 24.652344 18.394531 23.246094 C 19.757812 21.433594 19.394531 18.859375 17.582031 17.496094 Z M 17.582031 17.496094 "/>
<path style=" stroke:none;fill-rule:nonzero;fill:rgb(0%,62.745098%,100%);fill-opacity:1;" d="M 24.363281 18.617188 L 24.363281 18.519531 C 24.363281 18.449219 24.304688 18.390625 24.234375 18.390625 L 21.035156 18.390625 C 20.964844 18.390625 20.90625 18.449219 20.90625 18.519531 L 20.90625 18.714844 C 20.90625 18.785156 20.964844 18.84375 21.035156 18.84375 L 23.75 18.84375 C 23.828125 18.84375 23.890625 18.910156 23.875 18.988281 C 23.800781 19.496094 23.558594 20.433594 22.8125 21.34375 C 22.765625 21.40625 22.664062 21.40625 22.613281 21.339844 C 21.992188 20.542969 21.796875 19.726562 21.746094 19.421875 C 21.734375 19.359375 21.675781 19.308594 21.605469 19.320312 L 21.503906 19.328125 L 21.410156 19.339844 C 21.339844 19.347656 21.289062 19.414062 21.304688 19.492188 C 21.367188 19.835938 21.597656 20.785156 22.328125 21.691406 C 22.375 21.742188 22.371094 21.820312 22.320312 21.863281 C 21.429688 22.683594 20.625 22.863281 20.339844 22.898438 C 20.277344 22.910156 20.226562 22.960938 20.226562 23.03125 L 20.226562 23.226562 C 20.226562 23.300781 20.296875 23.359375 20.371094 23.351562 C 20.710938 23.3125 21.621094 23.121094 22.628906 22.195312 C 22.679688 22.148438 22.753906 22.148438 22.804688 22.195312 C 23.289062 22.644531 23.90625 23.082031 24.75 23.347656 C 24.816406 23.363281 24.890625 23.328125 24.90625 23.257812 L 24.960938 23.070312 C 24.984375 23.003906 24.941406 22.9375 24.878906 22.914062 C 24.117188 22.667969 23.554688 22.28125 23.113281 21.878906 C 23.0625 21.832031 23.058594 21.75 23.101562 21.703125 C 24.347656 20.246094 24.363281 18.6875 24.363281 18.617188 Z M 24.363281 18.617188 "/>
<path style=" stroke:none;fill-rule:nonzero;fill:rgb(0%,62.745098%,100%);fill-opacity:1;" d="M 26.585938 18.1875 L 26.390625 18.1875 C 26.316406 18.1875 26.257812 18.242188 26.257812 18.316406 L 26.257812 18.996094 C 26.257812 19.070312 26.203125 19.128906 26.132812 19.128906 L 25.675781 19.128906 C 25.601562 19.128906 25.542969 19.183594 25.542969 19.253906 L 25.542969 19.449219 C 25.542969 19.523438 25.601562 19.578125 25.675781 19.578125 L 26.132812 19.578125 C 26.203125 19.578125 26.257812 19.636719 26.257812 19.707031 L 26.257812 20.699219 C 26.257812 20.765625 26.203125 20.824219 26.132812 20.824219 L 25.675781 20.824219 C 25.601562 20.824219 25.542969 20.882812 25.542969 20.949219 L 25.542969 21.144531 C 25.542969 21.21875 25.601562 21.277344 25.675781 21.277344 L 26.132812 21.277344 C 26.203125 21.277344 26.257812 21.332031 26.257812 21.402344 L 26.257812 22.339844 C 26.257812 22.542969 26.175781 22.875 25.660156 22.917969 C 25.59375 22.925781 25.539062 22.980469 25.539062 23.046875 L 25.539062 23.242188 C 25.539062 23.316406 25.601562 23.375 25.679688 23.371094 C 26.183594 23.324219 26.710938 23.039062 26.710938 22.339844 L 26.710938 21.402344 C 26.710938 21.332031 26.769531 21.277344 26.835938 21.277344 L 27.25 21.277344 C 27.316406 21.277344 27.375 21.21875 27.375 21.144531 L 27.375 20.949219 C 27.375 20.882812 27.316406 20.824219 27.25 20.824219 L 26.835938 20.824219 C 26.769531 20.824219 26.710938 20.765625 26.710938 20.699219 L 26.710938 19.707031 C 26.710938 19.636719 26.769531 19.578125 26.835938 19.578125 L 27.25 19.578125 C 27.316406 19.578125 27.375 19.523438 27.375 19.449219 L 27.375 19.253906 C 27.375 19.183594 27.316406 19.128906 27.25 19.128906 L 26.835938 19.128906 C 26.769531 19.128906 26.710938 19.070312 26.710938 18.996094 L 26.710938 18.316406 C 26.710938 18.242188 26.652344 18.1875 26.585938 18.1875 Z M 26.585938 18.1875 "/>
<path style=" stroke:none;fill-rule:nonzero;fill:rgb(0%,62.745098%,100%);fill-opacity:1;" d="M 27.601562 23.210938 C 27.601562 23.277344 27.65625 23.339844 27.726562 23.339844 L 29.164062 23.339844 C 29.804688 23.339844 30.324219 22.84375 30.324219 22.234375 L 30.324219 19.210938 C 30.324219 19.140625 30.265625 19.082031 30.191406 19.082031 L 27.726562 19.082031 C 27.65625 19.082031 27.601562 19.140625 27.601562 19.210938 Z M 29.164062 22.886719 L 28.179688 22.886719 C 28.109375 22.886719 28.050781 22.832031 28.050781 22.757812 L 28.050781 21.402344 C 28.050781 21.332031 28.109375 21.277344 28.179688 21.277344 L 29.746094 21.277344 C 29.8125 21.277344 29.871094 21.332031 29.871094 21.402344 L 29.871094 22.234375 C 29.871094 22.597656 29.554688 22.886719 29.164062 22.886719 Z M 29.871094 19.664062 L 29.871094 20.699219 C 29.871094 20.765625 29.8125 20.824219 29.746094 20.824219 L 28.179688 20.824219 C 28.109375 20.824219 28.050781 20.765625 28.050781 20.699219 L 28.050781 19.664062 C 28.050781 19.589844 28.109375 19.535156 28.179688 19.535156 L 29.746094 19.535156 C 29.8125 19.535156 29.871094 19.589844 29.871094 19.664062 Z M 29.871094 19.664062 "/>
<path style=" stroke:none;fill-rule:nonzero;fill:rgb(0%,62.745098%,100%);fill-opacity:1;" d="M 29.558594 18.183594 L 28.289062 18.183594 C 28.214844 18.183594 28.160156 18.242188 28.160156 18.308594 L 28.160156 18.503906 C 28.160156 18.578125 28.214844 18.636719 28.289062 18.636719 L 29.558594 18.636719 C 29.632812 18.636719 29.691406 18.578125 29.691406 18.503906 L 29.691406 18.308594 C 29.691406 18.242188 29.632812 18.183594 29.558594 18.183594 Z M 29.558594 18.183594 "/>
<path style=" stroke:none;fill-rule:nonzero;fill:rgb(0%,62.745098%,100%);fill-opacity:1;" d="M 34.417969 18.382812 L 31.773438 18.382812 C 31.703125 18.382812 31.644531 18.441406 31.644531 18.507812 L 31.644531 18.703125 C 31.644531 18.777344 31.703125 18.835938 31.773438 18.835938 L 34.417969 18.835938 C 34.492188 18.835938 34.550781 18.777344 34.550781 18.703125 L 34.550781 18.507812 C 34.550781 18.441406 34.492188 18.382812 34.417969 18.382812 Z M 34.417969 18.382812 "/>
<path style=" stroke:none;fill-rule:nonzero;fill:rgb(0%,62.745098%,100%);fill-opacity:1;" d="M 33.289062 20.644531 L 35.132812 20.644531 C 35.207031 20.644531 35.261719 20.585938 35.261719 20.511719 L 35.261719 20.316406 C 35.261719 20.25 35.207031 20.191406 35.132812 20.191406 L 31.058594 20.191406 C 30.988281 20.191406 30.933594 20.25 30.933594 20.316406 L 30.933594 20.511719 C 30.933594 20.585938 30.988281 20.644531 31.058594 20.644531 L 32.320312 20.644531 C 32.421875 20.644531 32.484375 20.757812 32.425781 20.835938 L 31.589844 22.351562 C 31.566406 22.386719 31.546875 22.421875 31.535156 22.457031 C 31.46875 22.660156 31.5 22.882812 31.625 23.058594 C 31.761719 23.246094 31.980469 23.359375 32.21875 23.359375 L 34.519531 23.359375 C 34.621094 23.359375 34.71875 23.304688 34.773438 23.21875 C 34.828125 23.132812 34.832031 23.03125 34.789062 22.941406 L 34.257812 21.90625 C 34.21875 21.839844 34.144531 21.820312 34.085938 21.851562 L 33.910156 21.941406 C 33.84375 21.972656 33.824219 22.050781 33.855469 22.113281 L 34.171875 22.722656 C 34.210938 22.808594 34.152344 22.910156 34.054688 22.910156 L 32.21875 22.910156 C 32.128906 22.910156 32.042969 22.867188 31.992188 22.800781 C 31.96875 22.765625 31.9375 22.699219 31.957031 22.625 C 31.960938 22.609375 31.964844 22.597656 31.972656 22.585938 L 32.996094 20.800781 C 33.058594 20.703125 33.171875 20.644531 33.289062 20.644531 Z M 33.289062 20.644531 "/>
</g>
</svg>
