<?xml version="1.0" encoding="UTF-8"?>
<svg xmlns="http://www.w3.org/2000/svg" xmlns:xlink="http://www.w3.org/1999/xlink" width="43pt" height="43pt" viewBox="0 0 43 43" version="1.1">
<g id="surface1">
<path style=" stroke:none;fill-rule:nonzero;fill:rgb(0%,62.745098%,100%);fill-opacity:1;" d="M 15.191406 15.117188 C 15.058594 15.015625 14.921875 14.925781 14.78125 14.847656 C 14.675781 14.789062 14.550781 14.816406 14.480469 14.910156 L 13.59375 16.089844 L 13.527344 16.171875 C 13.433594 16.300781 13.28125 16.371094 13.121094 16.363281 C 13.0625 16.359375 13.003906 16.359375 12.945312 16.363281 C 12.5 16.390625 12.070312 16.605469 11.78125 16.992188 C 11.546875 17.300781 11.445312 17.667969 11.464844 18.027344 C 11.46875 18.089844 11.503906 18.148438 11.5625 18.175781 C 11.683594 18.230469 11.78125 18.34375 11.804688 18.488281 C 11.835938 18.695312 11.710938 18.894531 11.511719 18.957031 C 11.277344 19.027344 11.035156 18.882812 10.984375 18.648438 C 10.957031 18.519531 10.988281 18.394531 11.0625 18.300781 C 11.105469 18.246094 11.125 18.179688 11.117188 18.113281 C 11.078125 17.65625 11.199219 17.179688 11.5 16.78125 C 11.878906 16.28125 12.453125 16.015625 13.035156 16.011719 C 13.148438 16.011719 13.253906 15.957031 13.320312 15.867188 L 14.136719 14.78125 C 14.199219 14.695312 14.160156 14.574219 14.058594 14.546875 C 12.691406 14.144531 11.160156 14.59375 10.242188 15.789062 C 9.054688 17.335938 9.34375 19.566406 10.886719 20.757812 C 11.03125 20.871094 11.183594 20.96875 11.335938 21.054688 C 11.4375 21.113281 11.566406 21.085938 11.636719 20.992188 L 12.523438 19.8125 L 12.585938 19.730469 C 12.683594 19.601562 12.835938 19.53125 12.996094 19.539062 C 13.054688 19.542969 13.113281 19.542969 13.167969 19.539062 C 13.613281 19.511719 14.046875 19.296875 14.335938 18.910156 C 14.566406 18.601562 14.671875 18.234375 14.652344 17.875 C 14.648438 17.8125 14.609375 17.753906 14.550781 17.726562 C 14.429688 17.671875 14.335938 17.558594 14.3125 17.414062 C 14.28125 17.207031 14.40625 17.007812 14.605469 16.945312 C 14.839844 16.875 15.078125 17.019531 15.132812 17.253906 C 15.160156 17.382812 15.128906 17.507812 15.054688 17.601562 C 15.011719 17.65625 14.992188 17.722656 14.996094 17.789062 C 15.039062 18.246094 14.914062 18.722656 14.617188 19.121094 C 14.238281 19.621094 13.664062 19.886719 13.082031 19.890625 C 12.96875 19.890625 12.863281 19.945312 12.796875 20.035156 L 11.980469 21.121094 C 11.914062 21.203125 11.957031 21.328125 12.054688 21.355469 C 13.433594 21.761719 14.980469 21.300781 15.894531 20.085938 C 17.070312 18.519531 16.757812 16.292969 15.191406 15.117188 Z M 15.191406 15.117188 "/>
<path style=" stroke:none;fill-rule:nonzero;fill:rgb(0%,62.745098%,100%);fill-opacity:1;" d="M 21.050781 16.085938 L 21.050781 16 C 21.050781 15.941406 21 15.890625 20.9375 15.890625 L 18.175781 15.890625 C 18.113281 15.890625 18.0625 15.941406 18.0625 16 L 18.0625 16.167969 C 18.0625 16.230469 18.113281 16.28125 18.175781 16.28125 L 20.519531 16.28125 C 20.585938 16.28125 20.640625 16.339844 20.628906 16.40625 C 20.5625 16.84375 20.355469 17.65625 19.710938 18.441406 C 19.667969 18.496094 19.582031 18.496094 19.539062 18.4375 C 19 17.75 18.832031 17.042969 18.789062 16.78125 C 18.777344 16.726562 18.726562 16.683594 18.667969 16.691406 L 18.578125 16.699219 L 18.5 16.710938 C 18.4375 16.714844 18.394531 16.773438 18.40625 16.839844 C 18.460938 17.136719 18.660156 17.957031 19.292969 18.742188 C 19.332031 18.785156 19.328125 18.851562 19.285156 18.890625 C 18.515625 19.597656 17.820312 19.753906 17.574219 19.785156 C 17.519531 19.792969 17.476562 19.839844 17.476562 19.898438 L 17.476562 20.066406 C 17.476562 20.132812 17.535156 20.183594 17.601562 20.175781 C 17.894531 20.140625 18.679688 19.976562 19.550781 19.175781 C 19.59375 19.136719 19.660156 19.136719 19.703125 19.175781 C 20.121094 19.566406 20.65625 19.941406 21.382812 20.171875 C 21.441406 20.1875 21.503906 20.15625 21.519531 20.09375 L 21.566406 19.933594 C 21.585938 19.875 21.550781 19.816406 21.496094 19.796875 C 20.835938 19.585938 20.351562 19.25 19.96875 18.902344 C 19.925781 18.863281 19.921875 18.792969 19.960938 18.75 C 21.035156 17.492188 21.050781 16.144531 21.050781 16.085938 Z M 21.050781 16.085938 "/>
<path style=" stroke:none;fill-rule:nonzero;fill:rgb(0%,62.745098%,100%);fill-opacity:1;" d="M 22.96875 15.714844 L 22.800781 15.714844 C 22.738281 15.714844 22.6875 15.761719 22.6875 15.824219 L 22.6875 16.414062 C 22.6875 16.476562 22.640625 16.527344 22.578125 16.527344 L 22.183594 16.527344 C 22.121094 16.527344 22.070312 16.574219 22.070312 16.636719 L 22.070312 16.804688 C 22.070312 16.867188 22.121094 16.914062 22.183594 16.914062 L 22.578125 16.914062 C 22.640625 16.914062 22.6875 16.964844 22.6875 17.027344 L 22.6875 17.882812 C 22.6875 17.941406 22.640625 17.992188 22.578125 17.992188 L 22.183594 17.992188 C 22.121094 17.992188 22.070312 18.042969 22.070312 18.101562 L 22.070312 18.269531 C 22.070312 18.332031 22.121094 18.382812 22.183594 18.382812 L 22.578125 18.382812 C 22.640625 18.382812 22.6875 18.429688 22.6875 18.492188 L 22.6875 19.300781 C 22.6875 19.476562 22.617188 19.765625 22.171875 19.800781 C 22.113281 19.808594 22.066406 19.855469 22.066406 19.914062 L 22.066406 20.082031 C 22.066406 20.144531 22.121094 20.195312 22.1875 20.191406 C 22.621094 20.152344 23.078125 19.90625 23.078125 19.300781 L 23.078125 18.492188 C 23.078125 18.429688 23.128906 18.382812 23.1875 18.382812 L 23.542969 18.382812 C 23.601562 18.382812 23.652344 18.332031 23.652344 18.269531 L 23.652344 18.101562 C 23.652344 18.042969 23.601562 17.992188 23.542969 17.992188 L 23.1875 17.992188 C 23.128906 17.992188 23.078125 17.941406 23.078125 17.882812 L 23.078125 17.027344 C 23.078125 16.964844 23.128906 16.914062 23.1875 16.914062 L 23.542969 16.914062 C 23.601562 16.914062 23.652344 16.867188 23.652344 16.804688 L 23.652344 16.636719 C 23.652344 16.574219 23.601562 16.527344 23.542969 16.527344 L 23.1875 16.527344 C 23.128906 16.527344 23.078125 16.476562 23.078125 16.414062 L 23.078125 15.824219 C 23.078125 15.761719 23.027344 15.714844 22.96875 15.714844 Z M 22.96875 15.714844 "/>
<path style=" stroke:none;fill-rule:nonzero;fill:rgb(0%,62.745098%,100%);fill-opacity:1;" d="M 23.847656 20.054688 C 23.847656 20.113281 23.894531 20.164062 23.957031 20.164062 L 25.199219 20.164062 C 25.75 20.164062 26.199219 19.738281 26.199219 19.210938 L 26.199219 16.597656 C 26.199219 16.539062 26.148438 16.488281 26.085938 16.488281 L 23.957031 16.488281 C 23.894531 16.488281 23.847656 16.539062 23.847656 16.597656 Z M 25.199219 19.773438 L 24.347656 19.773438 C 24.285156 19.773438 24.234375 19.726562 24.234375 19.664062 L 24.234375 18.492188 C 24.234375 18.429688 24.285156 18.382812 24.347656 18.382812 L 25.699219 18.382812 C 25.757812 18.382812 25.808594 18.429688 25.808594 18.492188 L 25.808594 19.210938 C 25.808594 19.523438 25.535156 19.773438 25.199219 19.773438 Z M 25.808594 16.988281 L 25.808594 17.882812 C 25.808594 17.941406 25.757812 17.992188 25.699219 17.992188 L 24.347656 17.992188 C 24.285156 17.992188 24.234375 17.941406 24.234375 17.882812 L 24.234375 16.988281 C 24.234375 16.925781 24.285156 16.878906 24.347656 16.878906 L 25.699219 16.878906 C 25.757812 16.878906 25.808594 16.925781 25.808594 16.988281 Z M 25.808594 16.988281 "/>
<path style=" stroke:none;fill-rule:nonzero;fill:rgb(0%,62.745098%,100%);fill-opacity:1;" d="M 25.539062 15.710938 L 24.441406 15.710938 C 24.378906 15.710938 24.332031 15.761719 24.332031 15.820312 L 24.332031 15.988281 C 24.332031 16.050781 24.378906 16.101562 24.441406 16.101562 L 25.539062 16.101562 C 25.601562 16.101562 25.652344 16.050781 25.652344 15.988281 L 25.652344 15.820312 C 25.652344 15.761719 25.601562 15.710938 25.539062 15.710938 Z M 25.539062 15.710938 "/>
<path style=" stroke:none;fill-rule:nonzero;fill:rgb(0%,62.745098%,100%);fill-opacity:1;" d="M 29.738281 15.882812 L 27.453125 15.882812 C 27.390625 15.882812 27.339844 15.933594 27.339844 15.992188 L 27.339844 16.160156 C 27.339844 16.222656 27.390625 16.273438 27.453125 16.273438 L 29.738281 16.273438 C 29.800781 16.273438 29.851562 16.222656 29.851562 16.160156 L 29.851562 15.992188 C 29.851562 15.933594 29.800781 15.882812 29.738281 15.882812 Z M 29.738281 15.882812 "/>
<path style=" stroke:none;fill-rule:nonzero;fill:rgb(0%,62.745098%,100%);fill-opacity:1;" d="M 28.761719 17.835938 L 30.355469 17.835938 C 30.417969 17.835938 30.464844 17.785156 30.464844 17.722656 L 30.464844 17.554688 C 30.464844 17.496094 30.417969 17.445312 30.355469 17.445312 L 26.835938 17.445312 C 26.773438 17.445312 26.726562 17.496094 26.726562 17.554688 L 26.726562 17.722656 C 26.726562 17.785156 26.773438 17.835938 26.835938 17.835938 L 27.925781 17.835938 C 28.011719 17.835938 28.066406 17.933594 28.015625 18.003906 L 27.292969 19.3125 C 27.273438 19.34375 27.257812 19.371094 27.246094 19.402344 C 27.1875 19.578125 27.214844 19.769531 27.324219 19.921875 C 27.441406 20.085938 27.632812 20.183594 27.835938 20.183594 L 29.824219 20.183594 C 29.914062 20.183594 29.996094 20.136719 30.042969 20.0625 C 30.089844 19.988281 30.09375 19.898438 30.058594 19.820312 L 29.597656 18.925781 C 29.566406 18.871094 29.5 18.851562 29.449219 18.878906 L 29.296875 18.957031 C 29.242188 18.984375 29.222656 19.050781 29.25 19.105469 L 29.523438 19.632812 C 29.558594 19.707031 29.507812 19.792969 29.421875 19.792969 L 27.835938 19.792969 C 27.757812 19.792969 27.683594 19.757812 27.640625 19.699219 C 27.621094 19.667969 27.59375 19.613281 27.609375 19.546875 C 27.613281 19.535156 27.617188 19.523438 27.625 19.515625 L 28.507812 17.972656 C 28.5625 17.886719 28.660156 17.835938 28.761719 17.835938 Z M 28.761719 17.835938 "/>
</g>
</svg>
